Coordinates
version=1
nRows=7
nColumns=40
inDegrees=yes

Units are S.I. units (second, meters, Newtons, ...)
Angles are in degrees.

endheader
time	pelvis_tilt	pelvis_list	pelvis_rotation	pelvis_tx	pelvis_ty	pelvis_tz	hip_flexion_r	hip_adduction_r	hip_rotation_r	knee_angle_r	knee_angle_r_beta	ankle_angle_r	subtalar_angle_r	mtp_angle_r	hip_flexion_l	hip_adduction_l	hip_rotation_l	knee_angle_l	knee_angle_l_beta	ankle_angle_l	subtalar_angle_l	mtp_angle_l	lumbar_extension	lumbar_bending	lumbar_rotation	arm_flex_r	arm_add_r	arm_rot_r	elbow_flex_r	pro_sup_r	wrist_flex_r	wrist_dev_r	arm_flex_l	arm_add_l	arm_rot_l	elbow_flex_l	pro_sup_l	wrist_flex_l	wrist_dev_l
     20.86414286	     -5.87395406	     -4.24817138	     16.59417883	      1.02276719	      0.91527237	      0.52801101	     10.90775082	      4.02350093	    -17.19523934	     21.93605829	     21.93605829	     18.67458079	    -13.85078434	     -0.51804850	     31.98796238	     -3.84577066	      6.25921692	     21.32223983	     21.32223983	      0.76267786	     -4.69579005	      3.13814352	    -10.17608642	      2.23919742	      3.05553372	     55.37931214	    -18.72007313	     -5.31376073	     86.66546779	     44.61747246	      0.00000000	      0.00000000	    -24.74379144	    -10.61345580	     20.64659467	     32.89839255	     43.11152395	      0.00000000	      0.00000000
     20.88828571	     -5.91101549	     -4.31106823	     16.81561699	      1.02350488	      0.91458579	      0.52452128	     10.61500344	      3.93004546	    -17.26614187	     22.15042896	     22.15042896	     19.11818505	    -13.92319066	     -0.04127736	     31.62564827	     -3.57824182	      6.76715554	     21.42106983	     21.42106983	      0.58980976	     -5.46153572	      0.83811398	    -10.36268195	      2.25735044	      3.36346176	     55.97641333	    -19.03086998	     -4.73352769	     90.50005271	     44.52533660	      0.00000000	      0.00000000	    -23.94556582	    -10.62149772	     21.63090850	     32.32027868	     43.14687119	      0.00000000	      0.00000000
     20.91242857	     -6.13750458	     -4.36238631	     16.95882258	      1.02452018	      0.91400080	      0.52086197	     10.37842302	      3.79958984	    -17.28077665	     22.11296493	     22.11296493	     19.28819372	    -14.01611747	     -0.05136930	     31.38221501	     -3.32102448	      7.02199932	     21.55230276	     21.55230276	      1.36980257	     -5.60261981	      0.49052043	    -10.03032473	      2.07900743	      3.43910406	     56.32232767	    -18.84046274	     -4.67345024	     90.71625678	     44.51883857	      0.00000000	      0.00000000	    -23.63830214	    -10.64262020	     21.63527821	     32.38759866	     43.15397293	      0.00000000	      0.00000000
     20.93657143	     -6.11464275	     -4.45224105	     17.09456297	      1.02552240	      0.91364378	      0.51698263	      9.87807483	      3.77255789	    -17.32391160	     22.06302358	     22.06302358	     19.47364657	    -14.04472353	      0.04592513	     31.21452203	     -3.08870617	      7.58427169	     22.30532171	     22.30532171	      2.10415965	     -6.40343000	      0.03496746	    -10.16742512	      2.16517629	      3.23950010	     57.12916421	    -18.24384717	     -4.37140526	     92.05901256	     44.47760201	      0.00000000	      0.00000000	    -23.05679871	    -10.66633339	     21.79521296	     32.32516300	     43.16757961	      0.00000000	      0.00000000
     20.96071429	     -6.32166883	     -4.44736375	     17.18826638	      1.02671421	      0.91350233	      0.51303290	      9.52742836	      3.58797081	    -17.32072015	     21.91818543	     21.91818543	     19.55102481	    -14.05524180	      0.10292080	     31.00572910	     -2.78898691	      7.82308421	     22.58904478	     22.58904478	      2.74255690	     -6.66983239	     -0.25672016	     -9.91600934	      1.92695139	      3.25450669	     57.27971692	    -17.96399102	     -4.19893803	     92.36495075	     44.46490889	      0.00000000	      0.00000000	    -22.40356760	    -10.89856180	     21.75795467	     32.42114281	     43.18744920	      0.00000000	      0.00000000
     20.98485714	     -6.34179056	     -4.53249311	     17.20250334	      1.02795974	      0.91369346	      0.50881016	      8.88905347	      3.55136321	    -17.38350765	     21.54494607	     21.54494607	     19.56182159	    -13.80819546	      0.25313758	     30.75960224	     -2.58950471	      8.18725717	     23.12960936	     23.12960936	      3.46733532	     -7.44865062	     -0.43922533	     -9.96815078	      2.00644990	      3.24509374	     57.45125884	    -17.76729281	     -3.89997614	     93.25142513	     44.43493474	      0.00000000	      0.00000000	    -21.69079176	    -11.13983745	     21.78309915	     32.41832521	     43.21512359	      0.00000000	      0.00000000
     21.00900000	     -6.53777314	     -4.52783313	     17.17754487	      1.02921470	      0.91398521	      0.50453885	      8.44289991	      3.34943311	    -17.41127132	     21.24507657	     21.24507657	     19.49412334	    -13.62645457	      0.36318912	     30.55227299	     -2.32213104	      8.30736461	     23.40384105	     23.40384105	      4.01535839	     -7.81562914	     -0.57191344	     -9.76980581	      1.89549973	      3.26076739	     57.41504370	    -17.59489600	     -3.68945848	     93.56298924	     44.42179315	      0.00000000	      0.00000000	    -20.89383705	    -11.49308360	     21.72072791	     32.52910285	     43.24420639	      0.00000000	      0.00000000
